<?xml version="1.0" encoding="UTF-8"?>
<svg width="13px" height="24px" viewBox="0 0 13 24" version="1.1" xmlns="http://www.w3.org/2000/svg" xmlns:xlink="http://www.w3.org/1999/xlink">
    <!-- Generator: Sketch 53.2 (72643) - https://sketchapp.com -->
    <title></title>
    <desc>Created with Sketch.</desc>
    <g id="Landing-Page" stroke="none" stroke-width="1" fill="none" fill-rule="evenodd">
        <g id="1440---Landing-Page-(Image)-V2" transform="translate(-685.000000, -4497.000000)" fill="#2D2D2D">
            <g id="FOOTER" transform="translate(0.000000, 4199.000000)">
                <g id="Social" transform="translate(685.000000, 298.000000)">
                    <path d="M12.3428571,0.171428571 L12.3428571,3.94285714 L10.1,3.94285714 C9.28094829,3.94285714 8.72857286,4.114284 8.44285714,4.45714286 C8.15714143,4.80000171 8.01428571,5.31428229 8.01428571,6 L8.01428571,8.7 L12.2,8.7 L11.6428571,12.9285714 L8.01428571,12.9285714 L8.01428571,23.7714286 L3.64285714,23.7714286 L3.64285714,12.9285714 L0,12.9285714 L0,8.7 L3.64285714,8.7 L3.64285714,5.58571429 C3.64285714,3.81427686 4.13809029,2.44048107 5.12857143,1.46428571 C6.11905257,0.488090357 7.438087,0 9.08571429,0 C10.4857213,0 11.5714247,0.0571422857 12.3428571,0.171428571 Z" id=""></path>
                </g>
            </g>
        </g>
    </g>
</svg>