<?xml version="1.0" encoding="UTF-8"?>
<svg width="23px" height="23px" viewBox="0 0 23 23" version="1.1" xmlns="http://www.w3.org/2000/svg" xmlns:xlink="http://www.w3.org/1999/xlink">
    <!-- Generator: Sketch 53.2 (72643) - https://sketchapp.com -->
    <title></title>
    <desc>Created with Sketch.</desc>
    <g id="Landing-Page" stroke="none" stroke-width="1" fill="none" fill-rule="evenodd">
        <g id="1440---Landing-Page-(Image)-V2" transform="translate(-731.000000, -4498.000000)" fill="#2D2D2D">
            <g id="FOOTER" transform="translate(0.000000, 4199.000000)">
                <g id="Social" transform="translate(685.000000, 298.000000)">
                    <path d="M60.2238095,15.2238095 C60.9380988,14.5095202 61.2952381,13.6476241 61.2952381,12.6380952 C61.2952381,11.6285664 60.9380988,10.7666702 60.2238095,10.052381 C59.5095202,9.33809167 58.6476241,8.98095238 57.6380952,8.98095238 C56.6285664,8.98095238 55.7666702,9.33809167 55.052381,10.052381 C54.3380917,10.7666702 53.9809524,11.6285664 53.9809524,12.6380952 C53.9809524,13.6476241 54.3380917,14.5095202 55.052381,15.2238095 C55.7666702,15.9380988 56.6285664,16.2952381 57.6380952,16.2952381 C58.6476241,16.2952381 59.5095202,15.9380988 60.2238095,15.2238095 Z M61.6238095,8.65238095 C62.7190531,9.74762452 63.2666667,11.0761827 63.2666667,12.6380952 C63.2666667,14.2000078 62.7190531,15.528566 61.6238095,16.6238095 C60.528566,17.7190531 59.2000078,18.2666667 57.6380952,18.2666667 C56.0761827,18.2666667 54.7476245,17.7190531 53.652381,16.6238095 C52.5571374,15.528566 52.0095238,14.2000078 52.0095238,12.6380952 C52.0095238,11.0761827 52.5571374,9.74762452 53.652381,8.65238095 C54.7476245,7.55713738 56.0761827,7.00952381 57.6380952,7.00952381 C59.2000078,7.00952381 60.528566,7.55713738 61.6238095,8.65238095 Z M64.4238095,5.85238095 C64.6809537,6.1095251 64.8095238,6.41904581 64.8095238,6.78095238 C64.8095238,7.14285895 64.6809537,7.45237967 64.4238095,7.70952381 C64.1666654,7.96666795 63.8571447,8.0952381 63.4952381,8.0952381 C63.1333315,8.0952381 62.8238108,7.96666795 62.5666667,7.70952381 C62.3095225,7.45237967 62.1809524,7.14285895 62.1809524,6.78095238 C62.1809524,6.41904581 62.3095225,6.1095251 62.5666667,5.85238095 C62.8238108,5.59523681 63.1333315,5.46666667 63.4952381,5.46666667 C63.8571447,5.46666667 64.1666654,5.59523681 64.4238095,5.85238095 Z M58.7238095,3.63809524 L57.6380952,3.63809524 C57.5714282,3.63809524 57.2071462,3.63571431 56.5452381,3.63095238 C55.88333,3.62619045 55.3809541,3.62619045 55.0380952,3.63095238 C54.6952364,3.63571431 54.2357172,3.64999988 53.6595238,3.67380952 C53.0833305,3.69761917 52.5928592,3.74523774 52.1880952,3.81666667 C51.7833313,3.8880956 51.4428585,3.97618995 51.1666667,4.08095238 C50.6904738,4.27142952 50.2714304,4.54761724 49.9095238,4.90952381 C49.5476172,5.27143038 49.2714295,5.69047381 49.0809524,6.16666667 C48.97619,6.44285852 48.8880956,6.78333131 48.8166667,7.18809524 C48.7452377,7.59285917 48.6976192,8.08333045 48.6738095,8.65952381 C48.6499999,9.23571717 48.6357143,9.69523638 48.6309524,10.0380952 C48.6261905,10.3809541 48.6261905,10.88333 48.6309524,11.5452381 C48.6357143,12.2071462 48.6380952,12.5714282 48.6380952,12.6380952 C48.6380952,12.7047622 48.6357143,13.0690443 48.6309524,13.7309524 C48.6261905,14.3928605 48.6261905,14.8952364 48.6309524,15.2380952 C48.6357143,15.5809541 48.6499999,16.0404733 48.6738095,16.6166667 C48.6976192,17.19286 48.7452377,17.6833313 48.8166667,18.0880952 C48.8880956,18.4928592 48.97619,18.833332 49.0809524,19.1095238 C49.2714295,19.5857167 49.5476172,20.0047601 49.9095238,20.3666667 C50.2714304,20.7285732 50.6904738,21.004761 51.1666667,21.1952381 C51.4428585,21.3000005 51.7833313,21.3880949 52.1880952,21.4595238 C52.5928592,21.5309527 53.0833305,21.5785713 53.6595238,21.602381 C54.2357172,21.6261906 54.6952364,21.6404762 55.0380952,21.6452381 C55.3809541,21.65 55.88333,21.65 56.5452381,21.6452381 C57.2071462,21.6404762 57.5714282,21.6380952 57.6380952,21.6380952 C57.7047622,21.6380952 58.0690443,21.6404762 58.7309524,21.6452381 C59.3928605,21.65 59.8952364,21.65 60.2380952,21.6452381 C60.5809541,21.6404762 61.0404733,21.6261906 61.6166667,21.602381 C62.19286,21.5785713 62.6833313,21.5309527 63.0880952,21.4595238 C63.4928592,21.3880949 63.833332,21.3000005 64.1095238,21.1952381 C64.5857167,21.004761 65.0047601,20.7285732 65.3666667,20.3666667 C65.7285732,20.0047601 66.004761,19.5857167 66.1952381,19.1095238 C66.3000005,18.833332 66.3880949,18.4928592 66.4595238,18.0880952 C66.5309527,17.6833313 66.5785713,17.19286 66.602381,16.6166667 C66.6261906,16.0404733 66.6404762,15.5809541 66.6452381,15.2380952 C66.65,14.8952364 66.65,14.3928605 66.6452381,13.7309524 C66.6404762,13.0690443 66.6380952,12.7047622 66.6380952,12.6380952 C66.6380952,12.5714282 66.6404762,12.2071462 66.6452381,11.5452381 C66.65,10.88333 66.65,10.3809541 66.6452381,10.0380952 C66.6404762,9.69523638 66.6261906,9.23571717 66.602381,8.65952381 C66.5785713,8.08333045 66.5309527,7.59285917 66.4595238,7.18809524 C66.3880949,6.78333131 66.3000005,6.44285852 66.1952381,6.16666667 C66.004761,5.69047381 65.7285732,5.27143038 65.3666667,4.90952381 C65.0047601,4.54761724 64.5857167,4.27142952 64.1095238,4.08095238 C63.833332,3.97618995 63.4928592,3.8880956 63.0880952,3.81666667 C62.6833313,3.74523774 62.19286,3.69761917 61.6166667,3.67380952 C61.0404733,3.64999988 60.5809541,3.63571431 60.2380952,3.63095238 C59.8952364,3.62619045 59.3904795,3.62857138 58.7238095,3.63809524 Z M68.5380952,8.10952381 C68.5857145,8.94762324 68.6095238,10.457132 68.6095238,12.6380952 C68.6095238,14.8190585 68.5857145,16.3285672 68.5380952,17.1666667 C68.4428567,19.147629 67.8523864,20.680947 66.7666667,21.7666667 C65.680947,22.8523864 64.147629,23.4428567 62.1666667,23.5380952 C61.3285672,23.5857145 59.8190585,23.6095238 57.6380952,23.6095238 C55.457132,23.6095238 53.9476232,23.5857145 53.1095238,23.5380952 C51.1285615,23.4428567 49.5952435,22.8523864 48.5095238,21.7666667 C47.4238041,20.680947 46.8333338,19.147629 46.7380952,17.1666667 C46.690476,16.3285672 46.6666667,14.8190585 46.6666667,12.6380952 C46.6666667,10.457132 46.690476,8.94762324 46.7380952,8.10952381 C46.8333338,6.12856152 47.4238041,4.59524352 48.5095238,3.50952381 C49.5952435,2.4238041 51.1285615,1.83333381 53.1095238,1.73809524 C53.9476232,1.69047595 55.457132,1.66666667 57.6380952,1.66666667 C59.8190585,1.66666667 61.3285672,1.69047595 62.1666667,1.73809524 C64.147629,1.83333381 65.680947,2.4238041 66.7666667,3.50952381 C67.8523864,4.59524352 68.4428567,6.12856152 68.5380952,8.10952381 Z" id=""></path>
                </g>
            </g>
        </g>
    </g>
</svg>