<?xml version="1.0" encoding="UTF-8"?>
<svg width="199px" height="31px" viewBox="0 0 199 31" version="1.1" xmlns="http://www.w3.org/2000/svg" xmlns:xlink="http://www.w3.org/1999/xlink">
    <!-- Generator: Sketch 53.2 (72643) - https://sketchapp.com -->
    <title>LOGO</title>
    <desc>Created with Sketch.</desc>
    <g id="Landing-Page" stroke="none" stroke-width="1" fill="none" fill-rule="evenodd">
        <g id="1440---Landing-Page-(Image)-V2" transform="translate(-621.000000, -50.000000)" fill="#000000">
            <g id="LOGO" transform="translate(720.500000, 65.500000) rotate(-270.000000) translate(-720.500000, -65.500000) translate(705.000000, -34.000000)">
                <path d="M29.0647494,198.473587 L26.3258917,198.473587 C25.8634069,198.473587 25.5255561,198.346667 25.273198,198.094859 L14.3641188,188.687573 C12.1732387,186.797993 10.3624407,185.999923 8.13035926,185.999923 C5.35030027,185.999923 3.79083035,187.42853 3.79083035,189.948647 C3.79083035,192.635283 5.60265835,194.273054 8.55164275,194.273054 L9.18305296,194.273054 C9.6465678,194.273054 10.0256199,194.650767 10.0256199,195.112754 L10.0256199,197.297803 C10.0256199,197.801421 9.68879915,198.137504 9.18305296,198.137504 L8.13035926,198.137504 C3.28508416,198.137504 0.000309009892,194.819316 0.000309009892,189.948647 C0.000309009892,185.202867 3.28508416,181.884679 8.00366521,181.884679 C11.1627763,181.884679 13.5637832,182.891914 16.5117376,185.496305 L25.4421234,193.307449 C25.7789442,193.600887 26.1579964,193.433353 26.1579964,193.014011 L26.1579964,182.429926 C26.1579964,181.884679 26.4525858,181.590226 26.9995333,181.590226 L29.0647494,181.590226 C29.5694656,181.590226 29.9062863,181.884679 29.9062863,182.429926 L29.9062863,197.632871 C29.9062863,198.094859 29.5272342,198.473587 29.0647494,198.473587" id="Fill-1"></path>
                <path d="M28.907672,174.661585 L4.66081742,164.368523 C4.45082555,164.285236 4.24083369,164.411183 4.24083369,164.663075 L4.24083369,176.173956 C4.24083369,176.636097 3.86099547,177.013936 3.39777812,177.013936 L1.29374201,177.013936 C0.831554035,177.013936 0.451715813,176.636097 0.451715813,176.173956 L0.451715813,161.050245 C0.451715813,160.589119 0.831554035,160.209249 1.29374201,160.209249 L4.11422095,160.209249 C4.40862131,160.209249 4.66081742,160.293552 4.95624714,160.420514 L29.2864808,170.586613 C29.7074939,170.754203 29.9174858,171.048755 29.9174858,171.38495 L29.9174858,173.905907 C29.9174858,174.493995 29.4120642,174.871834 28.907672,174.661585" id="Fill-4"></path>
                <path d="M9.29165267,130.295507 C6.21908496,130.295507 4.45068585,132.432261 4.45068585,134.989477 L4.45068585,138.970182 C4.45068585,139.221446 4.61846761,139.389631 4.87168424,139.389631 L13.7116211,139.389631 C13.9648377,139.389631 14.1315902,139.221446 14.1315902,138.970182 L14.1315902,134.989477 C14.1315902,132.432261 12.3642204,130.295507 9.29165267,130.295507 M29.075489,143.370336 L1.29371259,143.370336 C0.831540766,143.370336 0.451715813,142.993441 0.451715813,142.53144 L0.451715813,134.989477 C0.451715813,130.128335 3.98851402,126.189169 9.29165267,126.189169 C12.9118271,126.189169 15.3101798,127.991581 16.8263916,130.547783 C17.1629844,131.09185 17.4573745,131.427206 17.8361701,131.427206 C18.0893868,131.427206 18.2993713,131.343114 18.5515586,131.217482 L28.4856795,126.356341 C28.6544906,126.272248 28.8655045,126.189169 29.1588652,126.189169 C29.5376608,126.189169 29.9174858,126.440433 29.9174858,127.027053 L29.9174858,129.583255 C29.9174858,130.128335 29.5798636,130.421138 29.2432707,130.589323 L18.6359641,135.617636 C18.3837768,135.743268 18.1315895,135.952992 18.1315895,136.41398 L18.1315895,138.970182 C18.1315895,139.221446 18.2993713,139.389631 18.5515586,139.389631 L29.075489,139.389631 C29.5376608,139.389631 29.9174858,139.766526 29.9174858,140.227514 L29.9174858,142.53144 C29.9174858,142.993441 29.5376608,143.370336 29.075489,143.370336" id="Fill-6"></path>
                <path d="M23.5200078,107.087293 C21.8337345,106.20689 18.2942098,106.165352 15.1741919,106.165352 C12.0552048,106.165352 8.51464935,106.20689 6.82837606,107.087293 C5.14313351,107.966683 4.00520826,109.516761 4.00520826,111.781089 C4.00520826,114.042378 5.14313351,115.593469 6.82837606,116.473872 C8.51464935,117.353262 12.0552048,117.395814 15.1741919,117.395814 C18.2942098,117.395814 21.8337345,117.353262 23.5200078,116.473872 C25.2062811,115.593469 26.3442063,114.042378 26.3442063,111.781089 C26.3442063,109.516761 25.2062811,107.966683 23.5200078,107.087293 M25.3320301,120.160625 C22.7191311,121.418923 19.0950865,121.501999 15.1741919,121.501999 C11.2543281,121.501999 7.6292528,121.418923 5.0163538,120.160625 C2.19215527,118.820264 -0.000206145878,115.971363 -0.000206145878,111.781089 C-0.000206145878,107.589802 2.19215527,104.740902 5.0163538,103.399528 C7.6292528,102.142243 11.2543281,102.058154 15.1741919,102.058154 C19.0950865,102.058154 22.7191311,102.142243 25.3320301,103.399528 C28.1562286,104.740902 30.3475593,107.589802 30.3475593,111.781089 C30.3475593,115.971363 28.1562286,118.820264 25.3320301,120.160625" id="Fill-8"></path>
                <path d="M21.5128072,97.4055806 L20.8371796,97.4055806 C20.3740395,97.4055806 19.9934187,97.0279754 19.9934187,96.5661197 L19.9934187,94.215223 C19.9934187,93.7523522 20.3740395,93.374747 20.8371796,93.374747 L21.5128072,93.374747 C24.3803562,93.374747 26.3628848,91.108101 26.3628848,87.8334929 C26.3628848,84.7690037 24.5918122,82.627211 22.0182385,82.627211 C19.1083982,82.627211 17.5044274,84.3913985 16.4925333,88.7145716 C15.3537656,93.6691167 12.6120585,96.6087525 8.01469657,96.6087525 C2.99545416,96.6087525 0,92.7870229 0,87.6233739 C0,82.2496058 3.03774535,78.9333799 8.01469657,78.9333799 L8.56345057,78.9333799 C9.02659069,78.9333799 9.40617992,79.3109851 9.40617992,79.7728408 L9.40617992,82.0811046 C9.40617992,82.5429604 9.02659069,82.9205655 8.56345057,82.9205655 L8.01469657,82.9205655 C5.48341402,82.9205655 4.00734828,84.7263709 4.00734828,87.7066094 C4.00734828,90.6888781 5.52467372,92.4936683 7.93011418,92.4936683 C10.5459791,92.4936683 11.8941398,90.7721136 12.9916478,85.8602014 C14.0045734,81.3258943 17.4621362,78.5131419 21.8490737,78.5131419 C26.9116388,78.5131419 30.3692016,82.3328414 30.3692016,87.8751106 C30.3692016,93.6274989 26.8693476,97.4055806 21.5128072,97.4055806" id="Fill-11"></path>
                <path d="M29.076489,71.5996046 L1.29374201,71.5996046 C0.831554035,71.5996046 0.451715813,71.2238041 0.451715813,70.7641557 L0.451715813,68.4649033 C0.451715813,68.0062651 0.831554035,67.6294544 1.29374201,67.6294544 L29.076489,67.6294544 C29.5386769,67.6294544 29.9174858,68.0062651 29.9174858,68.4649033 L29.9174858,70.7641557 C29.9174858,71.2238041 29.5386769,71.5996046 29.076489,71.5996046" id="Fill-13"></path>
                <path d="M29.076489,60.6816916 L1.29374201,60.6816916 C0.831554035,60.6816916 0.451715813,60.3047199 0.451715813,59.8436389 L0.451715813,46.3050853 C0.451715813,45.8440043 0.831554035,45.4670326 1.29374201,45.4670326 L3.60879936,45.4670326 C4.0720167,45.4670326 4.45082555,45.8440043 4.45082555,46.3050853 L4.45082555,56.2806483 C4.45082555,56.5319628 4.61861317,56.699168 4.87183865,56.699168 L13.7954634,56.699168 C14.0486889,56.699168 14.2175059,56.5319628 14.2175059,56.2806483 L14.2175059,46.7661663 C14.2175059,46.3050853 14.5952854,45.9281136 15.0585027,45.9281136 L17.3745895,45.9281136 C17.8367774,45.9281136 18.2155863,46.3050853 18.2155863,46.7661663 L18.2155863,56.2806483 C18.2155863,56.5319628 18.3844033,56.699168 18.63557,56.699168 L25.4973629,56.699168 C25.7505884,56.699168 25.918376,56.5319628 25.918376,56.2806483 L25.918376,46.220976 C25.918376,45.7598951 26.2971849,45.3829234 26.7604022,45.3829234 L29.076489,45.3829234 C29.5386769,45.3829234 29.9174858,45.7598951 29.9174858,46.220976 L29.9174858,59.8436389 C29.9174858,60.3047199 29.5386769,60.6816916 29.076489,60.6816916" id="Fill-15"></path>
                <path d="M9.29165267,27.6534349 C6.21908496,27.6534349 4.45068585,29.7912025 4.45068585,32.3474051 L4.45068585,36.3291239 C4.45068585,36.5803876 4.61846761,36.747559 4.87168424,36.747559 L13.7116211,36.747559 C13.9648377,36.747559 14.1315902,36.5803876 14.1315902,36.3291239 L14.1315902,32.3474051 C14.1315902,29.7912025 12.3642204,27.6534349 9.29165267,27.6534349 M29.075489,40.7282645 L1.29371259,40.7282645 C0.831540766,40.7282645 0.451715813,40.351369 0.451715813,39.8903812 L0.451715813,32.3474051 C0.451715813,27.4862635 3.98851402,23.5470975 9.29165267,23.5470975 C12.9118271,23.5470975 15.3101798,25.3495091 16.8263916,27.9057118 C17.1629844,28.4497787 17.4573745,28.7851346 17.8361701,28.7851346 C18.0893868,28.7851346 18.2993713,28.7020555 18.5515586,28.5754105 L28.4856795,23.715282 C28.6544906,23.6311898 28.8655045,23.5470975 29.1588652,23.5470975 C29.5376608,23.5470975 29.9174858,23.7983612 29.9174858,24.3849808 L29.9174858,26.9421966 C29.9174858,27.4862635 29.5798636,27.7800799 29.2432707,27.9472513 L18.6359641,32.9765775 C18.3837768,33.1022093 18.1315895,33.3109203 18.1315895,33.7719081 L18.1315895,36.3291239 C18.1315895,36.5803876 18.2993713,36.747559 18.5515586,36.747559 L29.075489,36.747559 C29.5376608,36.747559 29.9174858,37.1254676 29.9174858,37.5854423 L29.9174858,39.8903812 C29.9174858,40.351369 29.5376608,40.7282645 29.075489,40.7282645" id="Fill-17"></path>
                <path d="M21.4973045,18.8818677 L20.8221767,18.8818677 C20.3593792,18.8818677 19.9790401,18.5035083 19.9790401,18.0429851 L19.9790401,15.6926936 C19.9790401,15.231156 20.3593792,14.8527966 20.8221767,14.8527966 L21.4973045,14.8527966 C24.3627322,14.8527966 26.343794,12.5887265 26.343794,9.31535986 C26.343794,6.25298183 24.5740317,4.11266463 22.0023619,4.11266463 C19.0946742,4.11266463 17.49189,5.87563681 16.4807445,10.1958316 C15.3428193,15.1469635 12.6031405,18.0845742 8.00917965,18.0845742 C2.99365044,18.0845742 0.000412291756,14.2654774 0.000412291756,9.10538561 C0.000412291756,3.73531961 3.03591035,0.421378238 8.00917965,0.421378238 L8.55752769,0.421378238 C9.02032519,0.421378238 9.3996336,0.798723262 9.3996336,1.26026086 L9.3996336,3.56693447 C9.3996336,4.02948643 9.02032519,4.40581708 8.55752769,4.40581708 L8.00917965,4.40581708 C5.47976973,4.40581708 4.00479597,6.21139273 4.00479597,9.18957818 C4.00479597,12.168778 5.52099891,13.9723249 7.92465984,13.9723249 C10.5385896,13.9723249 11.8857529,12.2529706 12.982449,7.34444217 C13.9946252,2.81224442 17.4496301,0.00142974508 21.8333222,0.00142974508 C26.8921421,0.00142974508 30.347147,3.81849781 30.347147,9.35694896 C30.347147,15.1053744 26.8498822,18.8818677 21.4973045,18.8818677" id="Fill-19"></path>
            </g>
        </g>
    </g>
</svg>